# xmcd
#
# Track frame offsets: 
#        150
#        12025
#        23665
#        35177
#        56282
#        69832
#        79712
#        90512
#        102212
#        116150
#        126787
#        140022
#
# Disc length: 2031 seconds
#
# Revision: 3
# Processed by: cddbd v1.5.2PL0 Copyright (c) Steve Scherf et al.
# Submitted via: ExactAudioCopy v0.99pb5
#
DISCID=9307ed0c
DTITLE=Various Artist - Classic Country - Legendary Country
DYEAR=1900
DGENRE=Country
TTITLE0=Tennessee Ernie Ford - Sixteen Tons
TTITLE1=Ray Price - Crazy Arms
TTITLE2=Johnny Horton - The Battle of New Orleans
TTITLE3=Marty Robbins - El Paso
TTITLE4=Claude King - Wolverton Mountain
TTITLE5=Ned Miller - From a Jack to a King
TTITLE6=Dave Dudley - Six Days on the Road
TTITLE7=George Owens - She Thinks I Still Care
TTITLE8=Lefty Frizzell - Saginaw, Michigan
TTITLE9=The Statler Brothers - Flowers on the Wall
TTITLE10=David Houston - Almost Persuaded
TTITLE11=Johnny Cash - Folsom Prison Blues
EXTD=
EXTT0=
EXTT1=
EXTT2=
EXTT3=
EXTT4=
EXTT5=
EXTT6=
EXTT7=
EXTT8=
EXTT9=
EXTT10=
EXTT11=
PLAYORDER=
